<svg width="69" height="17" viewBox="0 0 69 17" fill="none" xmlns="http://www.w3.org/2000/svg">
<path d="M6.52594 6.272C7.15527 6.38933 7.6726 6.704 8.07794 7.216C8.48327 7.728 8.68594 8.31467 8.68594 8.976C8.68594 9.57333 8.5366 10.1013 8.23794 10.56C7.94994 11.008 7.5286 11.36 6.97394 11.616C6.41927 11.872 5.76327 12 5.00594 12H0.189938V0.832H4.79794C5.55527 0.832 6.20594 0.954666 6.74994 1.2C7.3046 1.44533 7.7206 1.78667 7.99794 2.224C8.28594 2.66133 8.42994 3.15733 8.42994 3.712C8.42994 4.36267 8.25394 4.90667 7.90194 5.344C7.5606 5.78133 7.10194 6.09067 6.52594 6.272ZM2.42994 5.44H4.47794C5.01127 5.44 5.42194 5.32267 5.70994 5.088C5.99794 4.84267 6.14194 4.496 6.14194 4.048C6.14194 3.6 5.99794 3.25333 5.70994 3.008C5.42194 2.76267 5.01127 2.64 4.47794 2.64H2.42994V5.44ZM4.68594 10.176C5.22994 10.176 5.65127 10.048 5.94994 9.792C6.25927 9.536 6.41394 9.17333 6.41394 8.704C6.41394 8.224 6.25394 7.85067 5.93394 7.584C5.61394 7.30667 5.18194 7.168 4.63794 7.168H2.42994V10.176H4.68594ZM18.8392 3.136V12H16.5832V10.88C16.2952 11.264 15.9165 11.568 15.4472 11.792C14.9885 12.0053 14.4872 12.112 13.9432 12.112C13.2499 12.112 12.6365 11.968 12.1032 11.68C11.5699 11.3813 11.1485 10.9493 10.8392 10.384C10.5405 9.808 10.3912 9.12533 10.3912 8.336V3.136H12.6312V8.016C12.6312 8.72 12.8072 9.264 13.1592 9.648C13.5112 10.0213 13.9912 10.208 14.5992 10.208C15.2179 10.208 15.7032 10.0213 16.0552 9.648C16.4072 9.264 16.5832 8.72 16.5832 8.016V3.136H18.8392ZM29.5293 3.136L24.0413 16.192H21.6573L23.5773 11.776L20.0253 3.136H22.5373L24.8253 9.328L27.1453 3.136H29.5293ZM44.1013 12H41.8613L36.7893 4.336V12H34.5493V0.815999H36.7893L41.8613 8.496V0.815999H44.1013V12ZM50.2509 12.144C49.3976 12.144 48.6296 11.9573 47.9469 11.584C47.2643 11.2 46.7256 10.6613 46.3309 9.968C45.9469 9.27467 45.7549 8.47467 45.7549 7.568C45.7549 6.66133 45.9523 5.86133 46.3469 5.168C46.7523 4.47467 47.3016 3.94133 47.9949 3.568C48.6883 3.184 49.4616 2.992 50.3149 2.992C51.1683 2.992 51.9416 3.184 52.6349 3.568C53.3283 3.94133 53.8723 4.47467 54.2669 5.168C54.6723 5.86133 54.8749 6.66133 54.8749 7.568C54.8749 8.47467 54.6669 9.27467 54.2509 9.968C53.8456 10.6613 53.2909 11.2 52.5869 11.584C51.8936 11.9573 51.1149 12.144 50.2509 12.144ZM50.2509 10.192C50.6563 10.192 51.0349 10.096 51.3869 9.904C51.7496 9.70133 52.0376 9.40267 52.2509 9.008C52.4643 8.61333 52.5709 8.13333 52.5709 7.568C52.5709 6.72533 52.3469 6.08 51.8989 5.632C51.4616 5.17333 50.9229 4.944 50.2829 4.944C49.6429 4.944 49.1043 5.17333 48.6669 5.632C48.2403 6.08 48.0269 6.72533 48.0269 7.568C48.0269 8.41067 48.2349 9.06133 48.6509 9.52C49.0776 9.968 49.6109 10.192 50.2509 10.192ZM68.8061 3.136L66.2141 12H63.7981L62.1821 5.808L60.5661 12H58.1341L55.5261 3.136H57.7981L59.3661 9.888L61.0621 3.136H63.4301L65.0941 9.872L66.6621 3.136H68.8061Z" />
</svg>
