<svg width="67" height="16" viewBox="0 0 67 16" fill="none" xmlns="http://www.w3.org/2000/svg">
<path d="M0.441051 12V0.363636H5.03196C5.91454 0.363636 6.66643 0.532197 7.28764 0.869318C7.90885 1.20265 8.38234 1.66667 8.7081 2.26136C9.03764 2.85227 9.20242 3.53409 9.20242 4.30682C9.20242 5.07955 9.03575 5.76136 8.70242 6.35227C8.36908 6.94318 7.88613 7.40341 7.25355 7.73295C6.62476 8.0625 5.8634 8.22727 4.96946 8.22727H2.04332V6.25568H4.57173C5.04522 6.25568 5.43537 6.17424 5.74219 6.01136C6.05279 5.8447 6.28385 5.61553 6.43537 5.32386C6.59067 5.02841 6.66832 4.68939 6.66832 4.30682C6.66832 3.92045 6.59067 3.58333 6.43537 3.29545C6.28385 3.00379 6.05279 2.77841 5.74219 2.61932C5.43158 2.45644 5.03764 2.375 4.56037 2.375H2.90128V12H0.441051ZM13.0092 12.1648C12.4524 12.1648 11.9562 12.0682 11.5206 11.875C11.085 11.678 10.7403 11.3883 10.4865 11.0057C10.2365 10.6193 10.1115 10.1383 10.1115 9.5625C10.1115 9.07765 10.2005 8.67045 10.3786 8.34091C10.5566 8.01136 10.799 7.74621 11.1058 7.54545C11.4126 7.3447 11.7611 7.19318 12.1513 7.09091C12.5452 6.98864 12.9581 6.91667 13.3899 6.875C13.8975 6.82197 14.3066 6.77273 14.6172 6.72727C14.9278 6.67803 15.1532 6.60606 15.2933 6.51136C15.4335 6.41667 15.5036 6.27652 15.5036 6.09091V6.05682C15.5036 5.69697 15.3899 5.41856 15.1626 5.22159C14.9392 5.02462 14.621 4.92614 14.2081 4.92614C13.7725 4.92614 13.4259 5.02273 13.1683 5.21591C12.9107 5.4053 12.7403 5.64394 12.657 5.93182L10.4183 5.75C10.532 5.2197 10.7554 4.76136 11.0888 4.375C11.4221 3.98485 11.852 3.68561 12.3786 3.47727C12.9089 3.26515 13.5225 3.15909 14.2195 3.15909C14.7043 3.15909 15.1683 3.21591 15.6115 3.32955C16.0585 3.44318 16.4543 3.61932 16.799 3.85795C17.1475 4.09659 17.4221 4.40341 17.6229 4.77841C17.8236 5.14962 17.924 5.5947 17.924 6.11364V12H15.6286V10.7898H15.5604C15.4202 11.0625 15.2327 11.303 14.9979 11.5114C14.763 11.7159 14.4808 11.8769 14.1513 11.9943C13.8217 12.108 13.4411 12.1648 13.0092 12.1648ZM13.7024 10.4943C14.0585 10.4943 14.3729 10.4242 14.6456 10.2841C14.9183 10.1402 15.1323 9.94697 15.2876 9.70455C15.4429 9.46212 15.5206 9.1875 15.5206 8.88068V7.95455C15.4448 8.00379 15.3407 8.04924 15.2081 8.09091C15.0793 8.12879 14.9335 8.16477 14.7706 8.19886C14.6077 8.22917 14.4448 8.25758 14.282 8.28409C14.1191 8.30682 13.9714 8.32765 13.8388 8.34659C13.5547 8.38826 13.3066 8.45455 13.0945 8.54545C12.8823 8.63636 12.7176 8.75947 12.6001 8.91477C12.4827 9.06629 12.424 9.25568 12.424 9.48295C12.424 9.8125 12.5433 10.0644 12.782 10.2386C13.0244 10.4091 13.3312 10.4943 13.7024 10.4943ZM20.9837 15.2727C20.6768 15.2727 20.389 15.2481 20.12 15.1989C19.8549 15.1534 19.6352 15.0947 19.4609 15.0227L20.0064 13.2159C20.2905 13.303 20.5462 13.3504 20.7734 13.358C21.0045 13.3655 21.2034 13.3125 21.37 13.1989C21.5405 13.0852 21.6787 12.892 21.7848 12.6193L21.9268 12.25L18.7962 3.27273H21.3416L23.1484 9.68182H23.2393L25.0632 3.27273H27.6257L24.2337 12.9432C24.0708 13.4129 23.8492 13.822 23.5689 14.1705C23.2924 14.5227 22.942 14.7936 22.5178 14.983C22.0935 15.1761 21.5821 15.2727 20.9837 15.2727ZM42.3459 0.363636V12H40.2209L35.1584 4.67614H35.0732V12H32.6129V0.363636H34.772L39.7947 7.68182H39.897V0.363636H42.3459ZM48.2763 12.1705C47.3937 12.1705 46.6304 11.983 45.9865 11.608C45.3464 11.2292 44.852 10.7027 44.5036 10.0284C44.1551 9.35038 43.9808 8.56439 43.9808 7.67045C43.9808 6.76894 44.1551 5.98106 44.5036 5.30682C44.852 4.62879 45.3464 4.10227 45.9865 3.72727C46.6304 3.34848 47.3937 3.15909 48.2763 3.15909C49.1589 3.15909 49.9202 3.34848 50.5604 3.72727C51.2043 4.10227 51.7005 4.62879 52.049 5.30682C52.3975 5.98106 52.5717 6.76894 52.5717 7.67045C52.5717 8.56439 52.3975 9.35038 52.049 10.0284C51.7005 10.7027 51.2043 11.2292 50.5604 11.608C49.9202 11.983 49.1589 12.1705 48.2763 12.1705ZM48.2876 10.2955C48.6892 10.2955 49.0244 10.1818 49.2933 9.95455C49.5623 9.72348 49.7649 9.40909 49.9013 9.01136C50.0414 8.61364 50.1115 8.16098 50.1115 7.65341C50.1115 7.14583 50.0414 6.69318 49.9013 6.29545C49.7649 5.89773 49.5623 5.58333 49.2933 5.35227C49.0244 5.12121 48.6892 5.00568 48.2876 5.00568C47.8823 5.00568 47.5414 5.12121 47.2649 5.35227C46.9922 5.58333 46.7857 5.89773 46.6456 6.29545C46.5092 6.69318 46.4411 7.14583 46.4411 7.65341C46.4411 8.16098 46.5092 8.61364 46.6456 9.01136C46.7857 9.40909 46.9922 9.72348 47.2649 9.95455C47.5414 10.1818 47.8823 10.2955 48.2876 10.2955ZM55.6484 12L53.2734 3.27273H55.7223L57.0746 9.13636H57.1541L58.5632 3.27273H60.9666L62.3984 9.10227H62.4723L63.8018 3.27273H66.245L63.8757 12H61.3132L59.8132 6.51136H59.7053L58.2053 12H55.6484Z" fill="white"/>
</svg>
