<svg width="100" height="10" viewBox="0 0 100 10" fill="none" xmlns="http://www.w3.org/2000/svg">
<path d="M63.8204 7.06153L53.3777 9.99957V3.09468L63.8204 0.156189V7.06153Z" fill="#1E1E1E"/>
<path d="M92.9311 1.9513C92.9311 1.44595 93.1464 1.1849 93.5594 1.1849C93.7565 1.1849 94.0259 1.23738 94.2053 1.30705V0.139346C93.9541 0.0520287 93.667 0 93.3259 0C92.1411 0 91.5669 0.836079 91.5669 1.9513V2.50869H90.7951V3.6411H91.5669V7.73508H92.9311V3.6411H94.0077V2.50869H92.9311V1.9513Z" fill="#1E1E1E"/>
<path d="M71.5007 3.55469L70.4958 3.29319C69.3111 2.97966 68.8627 2.66568 68.8627 2.07346C68.8627 1.48123 69.401 1.15006 70.2628 1.15006C71.1245 1.15006 71.7346 1.62058 71.7882 2.35215H73.152C73.062 0.871368 72.0036 0 70.2982 0C68.6828 0 67.5162 0.906204 67.5162 2.16032C67.5162 3.22307 68.2163 3.97228 69.4006 4.26862L70.3159 4.49483C71.5007 4.79116 71.9672 5.10469 71.9672 5.71456C71.9672 6.37646 71.3748 6.75966 70.4059 6.75966C69.3651 6.75966 68.6828 6.14979 68.6292 5.17437H67.2473C67.3014 6.86417 68.5038 7.90927 70.37 7.90927C72.1289 7.90927 73.3132 6.98587 73.3132 5.59241C73.3132 4.54686 72.6672 3.85012 71.5007 3.55424V3.55469Z" fill="#1E1E1E"/>
<path d="M90.111 2.50983H88.7468V7.73622H90.111V2.50983Z" fill="#1E1E1E"/>
<path d="M98.5462 2.52655L97.1065 6.54L95.6924 2.52655H94.167L96.392 8.20401L95.6566 10.0001H97.0207L99.9999 2.52655H98.5462Z" fill="#1E1E1E"/>
<path d="M89.4507 0.0519409C88.9483 0.0519409 88.5712 0.400307 88.5712 0.88802C88.5712 1.37573 88.9483 1.70691 89.4507 1.70691C89.9531 1.70691 90.2943 1.35854 90.2943 0.88802C90.2943 0.417499 89.9354 0.0519409 89.4507 0.0519409Z" fill="#1E1E1E"/>
<path d="M80.9593 2.50983H79.5951V7.73622H80.9593V2.50983Z" fill="#1E1E1E"/>
<path d="M79.0878 2.51271H77.4547L75.4445 4.78931V0.143372H74.0803V7.73911H75.4445V5.03226L77.5623 7.73911H79.2136L76.9014 4.86441L79.0878 2.51271Z" fill="#1E1E1E"/>
<path d="M80.2963 0.0519409C79.7939 0.0519409 79.4169 0.400307 79.4169 0.88802C79.4169 1.37573 79.7939 1.70691 80.2963 1.70691C80.7988 1.70691 81.1399 1.35854 81.1399 0.88802C81.1399 0.417499 80.7811 0.0519409 80.2963 0.0519409Z" fill="#1E1E1E"/>
<path d="M85.3176 2.33386C84.4922 2.33386 83.774 2.66504 83.3256 3.15275V2.50805H81.9614V9.98208H83.3256V7.10738C83.7744 7.61274 84.474 7.90862 85.2817 7.90862C86.8612 7.90862 87.9919 6.75856 87.9919 5.12124C87.9919 3.48392 86.8971 2.33386 85.3176 2.33386ZM84.9587 6.74182C83.9898 6.74182 83.3256 6.06228 83.3256 5.10405C83.3256 4.14582 83.9898 3.50111 84.9587 3.50111C85.9277 3.50111 86.5918 4.16301 86.5918 5.10405C86.5918 6.04509 85.9277 6.74182 84.9587 6.74182Z" fill="#1E1E1E"/>
<path d="M4.60186 3.21127C4.60186 3.55192 4.52049 3.87128 4.35776 4.16935C4.20105 4.46742 3.95091 4.7077 3.60735 4.89019C3.26982 5.07269 2.84188 5.16393 2.32353 5.16393H1.26574V7.60933H0V1.24035H2.32353C2.81175 1.24035 3.22763 1.32551 3.57119 1.49584C3.91475 1.66617 4.17091 1.90036 4.33967 2.19843C4.51447 2.4965 4.60186 2.83411 4.60186 3.21127ZM2.26929 4.13285C2.61887 4.13285 2.87805 4.05377 3.04681 3.89561C3.21558 3.73137 3.29996 3.50325 3.29996 3.21127C3.29996 2.59079 2.9564 2.28056 2.26929 2.28056H1.26574V4.13285H2.26929Z" fill="#1E1E1E"/>
<path d="M7.30081 7.69145C6.81862 7.69145 6.38466 7.58499 5.99891 7.37209C5.61316 7.1531 5.30878 6.8459 5.08577 6.4505C4.86878 6.0551 4.76029 5.59887 4.76029 5.08181C4.76029 4.56475 4.8718 4.10852 5.09481 3.71312C5.32385 3.31772 5.63425 3.01357 6.02603 2.80066C6.41781 2.58167 6.85479 2.47217 7.33697 2.47217C7.81916 2.47217 8.25614 2.58167 8.64792 2.80066C9.03969 3.01357 9.34708 3.31772 9.5701 3.71312C9.79913 4.10852 9.91366 4.56475 9.91366 5.08181C9.91366 5.59887 9.79612 6.0551 9.56106 6.4505C9.33202 6.8459 9.0186 7.1531 8.62079 7.37209C8.22902 7.58499 7.78902 7.69145 7.30081 7.69145ZM7.30081 6.57825C7.52985 6.57825 7.74382 6.5235 7.94272 6.414C8.14765 6.29842 8.31039 6.1281 8.43093 5.90302C8.55148 5.67795 8.61175 5.40421 8.61175 5.08181C8.61175 4.60125 8.48518 4.23322 8.23203 3.97773C7.98491 3.71616 7.68053 3.58537 7.31889 3.58537C6.95725 3.58537 6.65287 3.71616 6.40575 3.97773C6.16466 4.23322 6.04411 4.60125 6.04411 5.08181C6.04411 5.56237 6.16164 5.93344 6.39671 6.19501C6.6378 6.4505 6.93917 6.57825 7.30081 6.57825Z" fill="#1E1E1E"/>
<path d="M17.3618 2.55429L15.8972 7.60933H14.532L13.6188 4.0781L12.7057 7.60933H11.3315L9.85778 2.55429H11.1416L12.0276 6.40488L12.986 2.55429H14.324L15.2643 6.39575L16.1503 2.55429H17.3618Z" fill="#1E1E1E"/>
<path d="M22.279 4.97231C22.279 5.15481 22.2669 5.31905 22.2428 5.46504H18.5812C18.6113 5.83003 18.7379 6.11593 18.9609 6.32276C19.1839 6.52958 19.4582 6.63299 19.7837 6.63299C20.2538 6.63299 20.5883 6.42921 20.7872 6.02164H22.1524C22.0077 6.50829 21.7305 6.90977 21.3206 7.22609C20.9108 7.53633 20.4075 7.69145 19.8108 7.69145C19.3286 7.69145 18.8946 7.58499 18.5089 7.37209C18.1292 7.1531 17.8308 6.8459 17.6138 6.4505C17.4029 6.0551 17.2974 5.59887 17.2974 5.08181C17.2974 4.55867 17.4029 4.09939 17.6138 3.70399C17.8248 3.30859 18.1201 3.00444 18.4998 2.79153C18.8796 2.57863 19.3165 2.47217 19.8108 2.47217C20.2869 2.47217 20.7119 2.57558 21.0856 2.78241C21.4653 2.98923 21.7576 3.28426 21.9625 3.6675C22.1735 4.04465 22.279 4.47959 22.279 4.97231ZM20.968 4.60733C20.962 4.27884 20.8445 4.01727 20.6154 3.82261C20.3864 3.62187 20.1061 3.5215 19.7746 3.5215C19.4612 3.5215 19.196 3.61883 18.979 3.81349C18.7681 4.00206 18.6385 4.26668 18.5902 4.60733H20.968Z" fill="#1E1E1E"/>
<path d="M24.0448 3.33901C24.2075 3.07135 24.4185 2.86149 24.6777 2.70941C24.9429 2.55734 25.2442 2.4813 25.5818 2.4813V3.82261H25.2472C24.8494 3.82261 24.5481 3.9169 24.3431 4.10548C24.1442 4.29405 24.0448 4.62254 24.0448 5.09093V7.60933H22.779V2.55429H24.0448V3.33901Z" fill="#1E1E1E"/>
<path d="M30.6666 4.97231C30.6666 5.15481 30.6546 5.31905 30.6304 5.46504H26.9688C26.999 5.83003 27.1256 6.11593 27.3486 6.32276C27.5716 6.52958 27.8458 6.63299 28.1713 6.63299C28.6414 6.63299 28.9759 6.42921 29.1748 6.02164H30.54C30.3954 6.50829 30.1181 6.90977 29.7083 7.22609C29.2984 7.53633 28.7951 7.69145 28.1984 7.69145C27.7162 7.69145 27.2823 7.58499 26.8965 7.37209C26.5168 7.1531 26.2184 6.8459 26.0015 6.4505C25.7905 6.0551 25.685 5.59887 25.685 5.08181C25.685 4.55867 25.7905 4.09939 26.0015 3.70399C26.2124 3.30859 26.5078 3.00444 26.8875 2.79153C27.2672 2.57863 27.7042 2.47217 28.1984 2.47217C28.6746 2.47217 29.0995 2.57558 29.4732 2.78241C29.8529 2.98923 30.1452 3.28426 30.3502 3.6675C30.5611 4.04465 30.6666 4.47959 30.6666 4.97231ZM29.3557 4.60733C29.3496 4.27884 29.2321 4.01727 29.0031 3.82261C28.774 3.62187 28.4938 3.5215 28.1623 3.5215C27.8488 3.5215 27.5836 3.61883 27.3666 3.81349C27.1557 4.00206 27.0261 4.26668 26.9779 4.60733H29.3557Z" fill="#1E1E1E"/>
<path d="M30.8412 5.06356C30.8412 4.55258 30.9407 4.09939 31.1396 3.70399C31.3445 3.30859 31.6217 3.00444 31.9713 2.79153C32.3209 2.57863 32.7097 2.47217 33.1376 2.47217C33.4631 2.47217 33.7735 2.54517 34.0688 2.69116C34.3642 2.83107 34.5992 3.01965 34.774 3.25689V0.857117H36.0579V7.60933H34.774V6.86111C34.6173 7.11051 34.3973 7.31126 34.114 7.46333C33.8308 7.61541 33.5023 7.69145 33.1286 7.69145C32.7067 7.69145 32.3209 7.58195 31.9713 7.36296C31.6217 7.14397 31.3445 6.83678 31.1396 6.44138C30.9407 6.03989 30.8412 5.58062 30.8412 5.06356ZM34.7831 5.08181C34.7831 4.77157 34.7228 4.50696 34.6023 4.28797C34.4817 4.0629 34.319 3.89257 34.114 3.77699C33.9091 3.65533 33.6891 3.5945 33.4541 3.5945C33.219 3.5945 33.002 3.65229 32.8031 3.76787C32.6042 3.88344 32.4415 4.05377 32.3149 4.27884C32.1943 4.49783 32.1341 4.75941 32.1341 5.06356C32.1341 5.36771 32.1943 5.63537 32.3149 5.86653C32.4415 6.0916 32.6042 6.26497 32.8031 6.38663C33.008 6.50829 33.225 6.56912 33.4541 6.56912C33.6891 6.56912 33.9091 6.51133 34.114 6.39575C34.319 6.27409 34.4817 6.10377 34.6023 5.88478C34.7228 5.6597 34.7831 5.39205 34.7831 5.08181Z" fill="#1E1E1E"/>
<path d="M39.8665 3.29339C40.0293 3.05006 40.2523 2.85236 40.5355 2.70029C40.8249 2.54821 41.1533 2.47217 41.521 2.47217C41.949 2.47217 42.3347 2.57863 42.6783 2.79153C43.0278 3.00444 43.3021 3.30859 43.501 3.70399C43.7059 4.09331 43.8084 4.5465 43.8084 5.06356C43.8084 5.58062 43.7059 6.03989 43.501 6.44138C43.3021 6.83678 43.0278 7.14397 42.6783 7.36296C42.3347 7.58195 41.949 7.69145 41.521 7.69145C41.1473 7.69145 40.8188 7.61845 40.5355 7.47246C40.2583 7.32038 40.0353 7.12572 39.8665 6.88848V7.60933H38.6008V0.857117H39.8665V3.29339ZM42.5155 5.06356C42.5155 4.75941 42.4522 4.49783 42.3257 4.27884C42.2051 4.05377 42.0424 3.88344 41.8374 3.76787C41.6385 3.65229 41.4216 3.5945 41.1865 3.5945C40.9575 3.5945 40.7405 3.65533 40.5355 3.77699C40.3366 3.89257 40.1739 4.0629 40.0473 4.28797C39.9268 4.51304 39.8665 4.77766 39.8665 5.08181C39.8665 5.38596 39.9268 5.65058 40.0473 5.87565C40.1739 6.10072 40.3366 6.27409 40.5355 6.39575C40.7405 6.51133 40.9575 6.56912 41.1865 6.56912C41.4216 6.56912 41.6385 6.50829 41.8374 6.38663C42.0424 6.26497 42.2051 6.0916 42.3257 5.86653C42.4522 5.64145 42.5155 5.3738 42.5155 5.06356Z" fill="#1E1E1E"/>
<path d="M49.0961 2.55429L45.995 9.99997H44.6479L45.7328 7.48158L43.7257 2.55429H45.1452L46.438 6.08552L47.749 2.55429H49.0961Z" fill="#1E1E1E"/>
</svg>
